<svg xmlns="http://www.w3.org/2000/svg" version="1.1" xmlns:xlink="http://www.w3.org/1999/xlink" viewBox="0 0 200 200"><rect width="200" height="200" fill="url('#gradient')"></rect><defs><linearGradient id="gradient" gradientTransform="rotate(103 0.5 0.5)"><stop offset="0%" stop-color="#1f3f56"></stop><stop offset="100%" stop-color="#1f3f56"></stop></linearGradient></defs><g><g fill="#277f7c" transform="matrix(2.2510757717492984,0,0,2.2510757717492984,3.8677296464971818,111.88888286576302)" stroke="#92c669" stroke-width="0.2"><path d="M0.95-10.57L4.03-10.57L4.14-9.33Q5.26-10.76 7.16-10.76L7.16-10.76Q9.16-10.76 9.86-9.17L9.86-9.17Q10.94-10.76 12.97-10.76L12.97-10.76Q16.18-10.76 16.27-6.88L16.27-6.88L16.27 0L12.97 0L12.97-6.67Q12.97-7.48 12.70-7.85Q12.42-8.22 11.70-8.22L11.70-8.22Q10.72-8.22 10.24-7.35L10.24-7.35L10.25-7.22L10.25 0L6.95 0L6.95-6.65Q6.95-7.48 6.69-7.85Q6.43-8.22 5.68-8.22L5.68-8.22Q4.74-8.22 4.24-7.35L4.24-7.35L4.24 0L0.95 0L0.95-10.57ZM24.54 0L24.44-1.14Q23.40 0.20 21.62 0.20L21.62 0.20Q19.88 0.20 18.99-0.82Q18.10-1.83 18.10-3.72L18.10-3.72L18.10-10.57L21.39-10.57L21.39-3.70Q21.39-2.34 22.71-2.34L22.71-2.34Q23.84-2.34 24.32-3.15L24.32-3.15L24.32-10.57L27.63-10.57L27.63 0L24.54 0ZM29.45-10.57L32.54-10.57L32.65-9.33Q33.77-10.76 35.66-10.76L35.66-10.76Q37.67-10.76 38.37-9.17L38.37-9.17Q39.44-10.76 41.47-10.76L41.47-10.76Q44.69-10.76 44.78-6.88L44.78-6.88L44.78 0L41.47 0L41.47-6.67Q41.47-7.48 41.20-7.85Q40.93-8.22 40.21-8.22L40.21-8.22Q39.23-8.22 38.75-7.35L38.75-7.35L38.76-7.22L38.76 0L35.46 0L35.46-6.65Q35.46-7.48 35.20-7.85Q34.93-8.22 34.19-8.22L34.19-8.22Q33.24-8.22 32.74-7.35L32.74-7.35L32.74 0L29.45 0L29.45-10.57ZM46.25-4.82L46.24-5.38Q46.24-6.96 46.86-8.20Q47.47-9.43 48.62-10.10Q49.78-10.76 51.33-10.76L51.33-10.76Q53.70-10.76 55.07-9.29Q56.44-7.82 56.44-5.29L56.44-5.29L56.44-5.18Q56.44-2.71 55.06-1.25Q53.69 0.20 51.35 0.20L51.35 0.20Q49.09 0.20 47.72-1.16Q46.36-2.51 46.25-4.82L46.25-4.82ZM49.54-5.77L49.53-5.18Q49.53-3.71 49.99-3.03Q50.45-2.34 51.35-2.34L51.35-2.34Q53.11-2.34 53.14-5.05L53.14-5.05L53.14-5.38Q53.14-8.22 51.33-8.22L51.33-8.22Q49.68-8.22 49.54-5.77L49.54-5.77ZM57.48-4.82L57.47-5.38Q57.47-6.96 58.09-8.20Q58.70-9.43 59.85-10.10Q61.01-10.76 62.56-10.76L62.56-10.76Q64.93-10.76 66.30-9.29Q67.67-7.82 67.67-5.29L67.67-5.29L67.67-5.18Q67.67-2.71 66.29-1.25Q64.92 0.20 62.58 0.20L62.58 0.20Q60.32 0.20 58.96-1.16Q57.59-2.51 57.48-4.82L57.48-4.82ZM60.77-5.77L60.76-5.18Q60.76-3.71 61.22-3.03Q61.68-2.34 62.58-2.34L62.58-2.34Q64.34-2.34 64.38-5.05L64.38-5.05L64.38-5.38Q64.38-8.22 62.56-8.22L62.56-8.22Q60.91-8.22 60.77-5.77L60.77-5.77ZM69.14-10.57L72.23-10.57L72.33-9.33Q73.46-10.76 75.35-10.76L75.35-10.76Q77.35-10.76 78.06-9.17L78.06-9.17Q79.13-10.76 81.16-10.76L81.16-10.76Q84.38-10.76 84.46-6.88L84.46-6.88L84.46 0L81.16 0L81.16-6.67Q81.16-7.48 80.89-7.85Q80.62-8.22 79.89-8.22L79.89-8.22Q78.92-8.22 78.44-7.35L78.44-7.35L78.45-7.22L78.45 0L75.15 0L75.15-6.65Q75.15-7.48 74.88-7.85Q74.62-8.22 73.88-8.22L73.88-8.22Q72.93-8.22 72.43-7.35L72.43-7.35L72.43 0L69.14 0L69.14-10.57Z"></path></g></g></svg>